<svg width="214" height="219" viewBox="0 0 214 219" fill="none" xmlns="http://www.w3.org/2000/svg">
<path fill-rule="evenodd" clip-rule="evenodd" d="M226.668 200.613C241.771 192.761 262.39 175.623 273.825 161.411C302.267 126.067 314.017 73.1861 302.986 30.1563L300.448 20.2578L251.676 38.8154L202.902 57.3737L203.157 66.921C203.665 86.0564 189.938 106.394 171.873 113.268C153.807 120.142 130.033 114.073 117.692 99.4399L111.536 92.1382L62.7622 110.696L13.99 129.254L18.6744 138.336C34.3115 168.651 61.7851 193.167 96.2896 207.598C125.711 219.904 159.626 222.278 191.171 214.239C207.848 209.989 210.852 208.836 226.668 200.613ZM171.54 82.0848C179.793 74.0144 180.249 58.2615 172.506 48.7325C170.302 46.0202 165.152 42.5515 161.062 41.0273C154.56 38.6019 152.429 38.709 144.109 41.8748C135.789 45.0406 134.126 46.3769 130.881 52.5108C116.885 78.9617 150.058 103.088 171.54 82.0848ZM291.526 -1.94567C289.089 -8.34989 278.168 -25.0737 270.279 -34.4824C243.566 -66.3394 199.835 -87.1561 157.511 -88.1615C119.922 -89.0547 76.1889 -72.4143 48.7018 -46.76C17.7509 -17.8737 -1.08097 26.7479 0.139923 68.3043C0.500378 80.5778 3.45893 100.331 5.89571 106.736L7.68773 111.445L56.2979 92.9492L104.906 74.4539L104.135 66.9328C102.421 50.2275 111.97 31.5639 127.208 21.8327C147.654 8.77752 177.72 14.2764 191.676 33.6239L196.099 39.7553L244.708 21.26L293.318 2.76402L291.526 -1.94567ZM196.361 18.0788C189.386 9.97341 166.927 0.77724 154.288 0.852497C139.741 0.940746 121.208 7.99281 110.282 17.5967C100.789 25.9424 90.1244 47.742 90.3018 58.4337L90.4147 65.2721L53.6245 79.2706L16.8344 93.2691L15.381 86.2776C12.9292 74.4893 13.8831 50.7857 17.4278 35.3638C21.6455 17.013 33.381 -7.67929 44.5372 -21.6749C49.2334 -27.5674 59.0295 -37.3789 66.3075 -43.4768C79.0639 -54.1648 80.4354 -54.9053 104.412 -64.0284C128.389 -73.1515 129.906 -73.51 146.541 -74.0052C156.032 -74.2878 169.872 -73.47 177.298 -72.1896C194.935 -69.1501 220.117 -58.5045 235.466 -47.599C248.366 -38.4342 264.836 -21.3601 270.841 -10.9237L274.402 -4.73449L237.612 9.26401L200.822 23.2625L196.361 18.0788Z" fill="#313131"/>
<path d="M196.361 18.0788C189.386 9.97341 166.927 0.77724 154.288 0.852497C139.741 0.940746 121.208 7.99281 110.282 17.5967C100.789 25.9424 90.1244 47.742 90.3018 58.4337L90.4147 65.2721L53.6245 79.2706L16.8344 93.2691L15.381 86.2776C12.9292 74.4893 13.8831 50.7857 17.4278 35.3638C21.6455 17.013 33.381 -7.67929 44.5372 -21.6749C49.2334 -27.5674 59.0295 -37.3789 66.3075 -43.4768C79.0639 -54.1648 80.4354 -54.9053 104.412 -64.0284C128.389 -73.1515 129.906 -73.51 146.541 -74.0052C156.032 -74.2878 169.872 -73.47 177.298 -72.1896C194.935 -69.1501 220.117 -58.5045 235.466 -47.599C248.366 -38.4342 264.836 -21.3601 270.841 -10.9237L274.402 -4.73449L237.612 9.26401L200.822 23.2625L196.361 18.0788Z" fill="#313131"/>
</svg>
