<svg width="532" height="488" viewBox="0 0 532 488" fill="none" xmlns="http://www.w3.org/2000/svg">
<path fill-rule="evenodd" clip-rule="evenodd" d="M497.645 447.559C530.781 430.332 576.017 392.731 601.107 361.549C663.509 284.005 689.286 167.986 665.085 73.5795L659.518 51.8625L552.512 92.5776L445.504 133.294L446.062 154.241C447.177 196.223 417.06 240.844 377.425 255.925C337.79 271.006 285.63 257.691 258.555 225.586L245.047 209.567L138.039 250.283L31.0333 290.998L41.3108 310.923C75.6182 377.435 135.895 431.221 211.597 462.884C276.146 489.883 350.556 495.09 419.765 477.454C456.355 468.13 462.944 465.599 497.645 447.559ZM376.696 187.51C394.802 169.803 395.801 135.242 378.815 114.335C373.979 108.385 362.68 100.774 353.706 97.4303C339.441 92.1091 334.767 92.3441 316.512 99.2898C298.258 106.235 294.61 109.167 287.49 122.625C256.783 180.658 329.563 233.591 376.696 187.51ZM639.942 3.14849C634.596 -10.9022 610.636 -47.594 593.326 -68.2365C534.719 -138.13 438.775 -183.802 345.916 -186.007C263.447 -187.967 167.497 -151.458 107.19 -95.1734C39.2846 -31.7972 -2.03207 66.1016 0.646552 157.276C1.43738 184.204 7.9284 227.542 13.2746 241.593L17.2063 251.926L123.856 211.346L230.502 170.768L228.81 154.267C225.049 117.615 245.999 76.6678 279.432 55.3178C324.289 26.675 390.253 38.7394 420.873 81.1874L430.578 94.6396L537.224 54.0612L643.874 13.4815L639.942 3.14849ZM431.151 47.0817C415.848 29.2987 366.575 9.12251 338.844 9.28762C306.93 9.48124 266.267 24.9533 242.295 46.0241C221.469 64.3345 198.071 112.162 198.46 135.62L198.708 150.623L117.991 181.335L37.2739 212.048L34.0853 196.709C28.706 170.845 30.7988 118.84 38.5758 85.0048C47.8294 44.7435 73.5768 -9.43096 98.0532 -40.137C108.357 -53.0651 129.849 -74.5913 145.817 -87.97C173.804 -111.419 176.813 -113.044 229.418 -133.06C282.023 -153.076 285.351 -153.862 321.847 -154.949C342.67 -155.569 373.036 -153.774 389.327 -150.965C428.024 -144.297 483.272 -120.941 516.949 -97.0141C545.251 -76.9067 581.385 -39.4465 594.559 -16.5492L602.373 -2.97014L521.656 27.7423L440.939 58.4548L431.151 47.0817Z" fill="#313131"/>
<path d="M431.151 47.0817C415.848 29.2987 366.575 9.12251 338.844 9.28762C306.93 9.48124 266.267 24.9533 242.295 46.0241C221.469 64.3345 198.071 112.162 198.46 135.62L198.708 150.623L117.991 181.335L37.2739 212.048L34.0853 196.709C28.706 170.845 30.7988 118.84 38.5758 85.0048C47.8294 44.7435 73.5768 -9.43096 98.0532 -40.137C108.357 -53.0651 129.849 -74.5913 145.817 -87.97C173.804 -111.419 176.813 -113.044 229.418 -133.06C282.023 -153.076 285.351 -153.862 321.847 -154.949C342.67 -155.569 373.036 -153.774 389.327 -150.965C428.024 -144.297 483.272 -120.941 516.949 -97.0141C545.251 -76.9067 581.385 -39.4465 594.559 -16.5492L602.373 -2.97014L521.656 27.7423L440.939 58.4548L431.151 47.0817Z" fill="#313131"/>
</svg>
